<svg width="40" height="41" viewBox="0 0 40 41" fill="none" xmlns="http://www.w3.org/2000/svg">
<path d="M8.9546 40.0014H0.661452V13.2948H8.9546V40.0014ZM4.80303 9.65177C2.15151 9.65177 0 7.45455 0 4.80303C0 2.15151 2.15008 0 4.80303 0C7.45598 0 9.60606 2.15008 9.60606 4.80303C9.60606 7.45455 7.45455 9.65177 4.80303 9.65177ZM39.9929 40.0014H31.7183V27.001C31.7183 23.9023 31.6554 19.9293 27.4067 19.9293C23.0951 19.9293 22.4337 23.2951 22.4337 26.7781V40.0014H14.1491V13.2948H22.1022V16.9377H22.2179C23.3251 14.8391 26.0295 12.6247 30.0639 12.6247C38.4571 12.6247 40 18.1521 40 25.3309V40.0014H39.9929Z" fill="black"/>
</svg>
