<svg width="300" height="300" viewBox="0 0 300 300" fill="none" xmlns="http://www.w3.org/2000/svg">
<circle cx="150" cy="150" r="150" fill="#080808"/>
<path d="M109.54 112.33V189H99.53V154.24H60.48V189H50.47V112.33H60.48V145.99H99.53V112.33H109.54ZM122.892 158.64C122.892 152.48 124.139 147.09 126.632 142.47C129.125 137.777 132.535 134.147 136.862 131.58C141.262 129.013 146.139 127.73 151.492 127.73C156.772 127.73 161.355 128.867 165.242 131.14C169.129 133.413 172.025 136.273 173.932 139.72V128.72H184.052V189H173.932V177.78C171.952 181.3 168.982 184.233 165.022 186.58C161.135 188.853 156.589 189.99 151.382 189.99C146.029 189.99 141.189 188.67 136.862 186.03C132.535 183.39 129.125 179.687 126.632 174.92C124.139 170.153 122.892 164.727 122.892 158.64ZM173.932 158.75C173.932 154.203 173.015 150.243 171.182 146.87C169.349 143.497 166.855 140.93 163.702 139.17C160.622 137.337 157.212 136.42 153.472 136.42C149.732 136.42 146.322 137.3 143.242 139.06C140.162 140.82 137.705 143.387 135.872 146.76C134.039 150.133 133.122 154.093 133.122 158.64C133.122 163.26 134.039 167.293 135.872 170.74C137.705 174.113 140.162 176.717 143.242 178.55C146.322 180.31 149.732 181.19 153.472 181.19C157.212 181.19 160.622 180.31 163.702 178.55C166.855 176.717 169.349 174.113 171.182 170.74C173.015 167.293 173.932 163.297 173.932 158.75ZM210.978 138.51C212.738 135.063 215.231 132.387 218.458 130.48C221.758 128.573 225.755 127.62 230.448 127.62V137.96H227.808C216.588 137.96 210.978 144.047 210.978 156.22V189H200.968V128.72H210.978V138.51ZM245.193 189.66C243.287 189.66 241.673 189 240.353 187.68C239.033 186.36 238.373 184.747 238.373 182.84C238.373 180.933 239.033 179.32 240.353 178C241.673 176.68 243.287 176.02 245.193 176.02C247.027 176.02 248.567 176.68 249.813 178C251.133 179.32 251.793 180.933 251.793 182.84C251.793 184.747 251.133 186.36 249.813 187.68C248.567 189 247.027 189.66 245.193 189.66Z" fill="#E7E7E7"/>
</svg>
